<svg width="23" height="23" viewBox="0 0 23 23" fill="none" xmlns="http://www.w3.org/2000/svg">
<path fill-rule="evenodd" clip-rule="evenodd" d="M4.7915 20.125C4.7915 18.5372 6.07869 17.25 7.6665 17.25C9.25432 17.25 10.5415 18.5372 10.5415 20.125C10.5415 21.7128 9.25432 23 7.6665 23C6.07869 23 4.7915 21.7128 4.7915 20.125ZM7.6665 19.1667C7.13723 19.1667 6.70817 19.5957 6.70817 20.125C6.70817 20.6543 7.13723 21.0833 7.6665 21.0833C8.19578 21.0833 8.62484 20.6543 8.62484 20.125C8.62484 19.5957 8.19578 19.1667 7.6665 19.1667Z" fill="white"/>
<path fill-rule="evenodd" clip-rule="evenodd" d="M16.2915 20.125C16.2915 18.5372 17.5787 17.25 19.1665 17.25C20.7543 17.25 22.0415 18.5372 22.0415 20.125C22.0415 21.7128 20.7543 23 19.1665 23C17.5787 23 16.2915 21.7128 16.2915 20.125ZM19.1665 19.1667C18.6372 19.1667 18.2082 19.5957 18.2082 20.125C18.2082 20.6543 18.6372 21.0833 19.1665 21.0833C19.6958 21.0833 20.1248 20.6543 20.1248 20.125C20.1248 19.5957 19.6958 19.1667 19.1665 19.1667Z" fill="white"/>
<path fill-rule="evenodd" clip-rule="evenodd" d="M0 0.958333C0 0.42906 0.42906 0 0.958333 0H3.11603C4.55759 0.0021838 5.77464 1.0716 5.96223 2.50085C5.96221 2.50072 5.96225 2.50098 5.96223 2.50085L6.26449 4.79167H22.0417C22.3288 4.79167 22.6008 4.92043 22.7829 5.14251C22.9649 5.3646 23.0377 5.6566 22.9813 5.93816L21.3716 13.9771C21.3715 13.9776 21.3715 13.978 21.3714 13.9784C21.3714 13.9785 21.3714 13.9784 21.3714 13.9784C21.1002 15.3403 19.8944 16.3135 18.5067 16.2917H8.38904C6.93865 16.3017 5.70761 15.2296 5.51865 13.7912M5.51865 13.7912L4.06198 2.75119C3.99954 2.27491 3.59403 1.91769 3.11373 1.91667H0.958333C0.42906 1.91667 0 1.48761 0 0.958333M6.51739 6.70833L7.41885 13.5405C7.48178 14.0206 7.89308 14.3791 8.37729 14.375L8.38542 14.375L18.515 14.375L18.5334 14.3752C18.9975 14.3841 19.4013 14.059 19.4917 13.6037L19.492 13.6023L20.8724 6.70833H6.51739Z" fill="white"/>
</svg>
