<svg width="18" height="26" viewBox="0 0 18 26" fill="none" xmlns="http://www.w3.org/2000/svg">
<path d="M18 12.9772C18 13.2731 17.9055 13.543 17.7079 13.7606L17.622 13.8564L5.9908 25.6518C5.75027 25.8781 5.46679 26 5.15754 26C4.84829 26 4.55622 25.8694 4.34146 25.6518C3.88618 25.1904 3.88618 24.4418 4.34146 23.9804L15.191 12.9772L4.37582 2.00871C4.15248 1.79108 4.03221 1.49511 4.03221 1.18173C4.03221 0.868341 4.15248 0.572361 4.37582 0.346028C4.82252 -0.115343 5.56128 -0.115343 6.01657 0.346028L17.665 12.1415C17.8797 12.3504 18 12.6551 18 12.9772Z" fill="#6D0088"/>
<path d="M11 12.9858C11 13.2921 10.8773 13.5809 10.6509 13.7997L10.5848 13.8697L2.18679 21.6499C1.93202 21.8862 1.61119 22 1.28094 22C0.950676 22 0.629852 21.8862 0.37508 21.6499C-0.125027 21.1861 -0.125027 20.4335 0.37508 19.9784L7.91443 12.9858L0.412824 6.01945C-0.0872829 5.56436 -0.0872829 4.80297 0.412824 4.34788C0.912932 3.88404 1.72443 3.88404 2.22453 4.34788L10.6226 12.1369C10.8679 12.3644 11 12.662 11 12.9858Z" fill="#6D0088"/>
</svg>
