<svg width="40" height="40" viewBox="0 0 40 40" fill="none" xmlns="http://www.w3.org/2000/svg">
<path d="M20 40C31.0457 40 40 31.0457 40 20C40 8.9543 31.0457 0 20 0C8.9543 0 0 8.9543 0 20C0 31.0457 8.9543 40 20 40Z" fill="#005FF9"/>
<path d="M23.6582 20.5C23.6582 22.2412 22.2415 23.6587 20.5004 23.6587C18.7585 23.6587 17.3418 22.2412 17.3418 20.5C17.3418 18.758 18.7585 17.3413 20.5004 17.3413C22.2415 17.3413 23.6582 18.758 23.6582 20.5ZM20.5004 10C14.7108 10 10 14.7102 10 20.5C10 26.2898 14.7108 31 20.5004 31C22.6211 31 24.6662 30.3684 26.4144 29.1737L26.4452 29.1533L25.03 27.5089L25.0064 27.5239C23.6606 28.3902 22.1021 28.8477 20.5004 28.8477C15.8975 28.8477 12.153 25.1031 12.153 20.5C12.153 15.8969 15.8975 12.1523 20.5004 12.1523C25.1025 12.1523 28.847 15.8969 28.847 20.5C28.847 21.0962 28.7809 21.7002 28.6509 22.2948C28.3863 23.3776 27.6288 23.7099 27.0586 23.6658C26.4861 23.6194 25.816 23.2106 25.8112 22.2121V21.3978V20.5C25.8112 17.5712 23.4283 15.189 20.5004 15.189C17.5717 15.189 15.1888 17.5712 15.1888 20.5C15.1888 23.4288 17.5717 25.811 20.5004 25.811C21.9226 25.811 23.2574 25.255 24.263 24.2431C24.8473 25.1535 25.8018 25.7244 26.8862 25.8118C26.9791 25.8189 27.0744 25.8228 27.1689 25.8228C27.9327 25.8228 28.6895 25.5677 29.2998 25.1038C29.929 24.6266 30.3991 23.9352 30.6582 23.1051C30.7008 22.9712 30.7764 22.6633 30.7764 22.6617L30.7787 22.6507C30.9315 21.9845 31 21.3198 31 20.5C31 14.7102 26.29 10 20.5004 10Z" fill="#FF9E00"/>
</svg>
