<svg width="40" height="40" viewBox="0 0 40 40" fill="none" xmlns="http://www.w3.org/2000/svg">
<path d="M20 40C31.0457 40 40 31.0457 40 20C40 8.9543 31.0457 0 20 0C8.9543 0 0 8.9543 0 20C0 31.0457 8.9543 40 20 40Z" fill="#F96600"/>
<path d="M18.7703 25.1091C16.8317 24.9068 15.084 24.4273 13.5885 23.2591C13.4022 23.1136 13.2113 22.9727 13.0408 22.8045C12.3863 22.175 12.3203 21.4545 12.8385 20.7136C13.2817 20.0773 14.0249 19.9068 14.7999 20.2727C14.9487 20.3481 15.0916 20.4347 15.2272 20.5318C16.613 21.4737 18.2465 21.9844 19.922 21.9998C21.5976 22.0152 23.2402 21.5345 24.6431 20.6182C24.9111 20.4009 25.2204 20.2401 25.5522 20.1455C25.8607 20.0542 26.1909 20.0694 26.4898 20.1886C26.7886 20.3077 27.0387 20.5238 27.1999 20.8023C27.609 21.4705 27.6044 22.1205 27.0999 22.6386C26.3265 23.4208 25.3919 24.025 24.3613 24.4091C23.3578 24.7696 22.3134 25.004 21.2522 25.1068C21.4113 25.2818 21.4794 25.3659 21.5885 25.4659C23.0272 26.9136 24.4726 28.3545 25.9067 29.8045C26.1352 30.0122 26.2901 30.2884 26.3483 30.5917C26.4065 30.8949 26.3648 31.2088 26.2294 31.4864C26.0916 31.7905 25.8672 32.0474 25.5842 32.2248C25.3013 32.4023 24.9724 32.4924 24.6385 32.4841C24.248 32.4456 23.8865 32.2604 23.6272 31.9659C22.5408 30.8727 21.434 29.8 20.3703 28.6864C20.0613 28.3636 19.9158 28.425 19.6385 28.7045C18.5453 29.8409 17.434 30.9386 16.3181 32.0386C16.1109 32.2683 15.8333 32.4226 15.5288 32.4773C15.2244 32.532 14.9104 32.484 14.6363 32.3409C14.3392 32.2022 14.0885 31.9806 13.9143 31.7028C13.7401 31.425 13.6499 31.1028 13.6544 30.775C13.6872 30.3698 13.8763 29.9933 14.1817 29.725C15.609 28.3023 17.0317 26.8788 18.4499 25.4545C18.5453 25.3568 18.6363 25.2545 18.7703 25.1091Z" fill="white"/>
<path d="M19.9501 20.1545C18.6967 20.1472 17.4738 19.7679 16.4364 19.0646C15.399 18.3613 14.5939 17.3657 14.1231 16.2042C13.6523 15.0427 13.537 13.7675 13.7919 12.5404C14.0469 11.3132 14.6605 10.1895 15.555 9.31157C16.4495 8.43368 17.5846 7.84123 18.8163 7.60934C20.048 7.37745 21.3208 7.51657 22.4733 8.00907C23.6258 8.50157 24.6061 9.32526 25.2898 10.3757C25.9735 11.4261 26.3299 12.6559 26.3137 13.9091C26.2909 15.5789 25.6094 17.1721 24.4176 18.3418C23.2257 19.5116 21.62 20.1631 19.9501 20.1545ZM23.0932 13.8204C23.0914 13.2078 22.9079 12.6095 22.5658 12.1013C22.2238 11.5931 21.7387 11.1978 21.1718 10.9654C20.605 10.7331 19.982 10.6741 19.3816 10.7961C18.7813 10.918 18.2306 11.2154 17.7993 11.6504C17.3681 12.0855 17.0756 12.6388 16.959 13.2402C16.8423 13.8416 16.9068 14.4641 17.1441 15.0289C17.3814 15.5936 17.781 16.0753 18.2922 16.4128C18.8035 16.7503 19.4034 16.9286 20.016 16.925C20.4221 16.9241 20.8241 16.843 21.1988 16.6863C21.5736 16.5297 21.9137 16.3005 22.1996 16.012C22.4855 15.7236 22.7117 15.3815 22.865 15.0054C23.0184 14.6293 23.0959 14.2266 23.0932 13.8204Z" fill="white"/>
</svg>
