<svg width="40" height="40" viewBox="0 0 40 40" fill="none" xmlns="http://www.w3.org/2000/svg">
<path d="M20 40C31.0457 40 40 31.0457 40 20C40 8.9543 31.0457 0 20 0C8.9543 0 0 8.9543 0 20C0 31.0457 8.9543 40 20 40Z" fill="#4169E1"/>
<path d="M31.5275 27.8273C30.9457 27.9091 28.1002 27.8273 27.9525 27.8273C27.2169 27.8367 26.5073 27.5558 25.9775 27.0454C25.3775 26.4682 24.8411 25.8318 24.2548 25.2273C24.0813 25.0437 23.8936 24.8743 23.6934 24.7204C23.2252 24.3591 22.7616 24.4409 22.5411 24.9932C22.3689 25.59 22.2487 26.2006 22.182 26.8182C22.1434 27.3773 21.7889 27.7273 21.1616 27.7659C20.773 27.7864 20.3843 27.7932 20.0002 27.7841C18.6004 27.7751 17.2227 27.4348 15.9798 26.7909C14.6349 26.0415 13.4632 25.0169 12.5411 23.7841C11.0252 21.8477 9.81386 19.7204 8.73204 17.5273C8.67522 17.4182 7.56613 15.0591 7.53886 14.9477C7.43886 14.575 7.53886 14.2182 7.84568 14.0954C8.04113 14.0204 11.6957 14.0954 11.757 14.0954C12.0287 14.0931 12.2941 14.1773 12.5148 14.3358C12.7354 14.4944 12.8999 14.719 12.9843 14.9773C13.6599 16.7071 14.5848 18.3288 15.7298 19.7909C15.89 19.9864 16.0775 20.1579 16.2866 20.3C16.5843 20.5023 16.8661 20.4318 16.9889 20.0886C17.1343 19.6125 17.2198 19.12 17.2434 18.6227C17.2639 17.6364 17.2434 16.9864 17.1889 16.0023C17.1525 15.3704 16.9298 14.8159 15.998 14.6386C15.7116 14.5886 15.6866 14.3523 15.8707 14.1159C16.2548 13.625 16.7798 13.5477 17.3684 13.5182C18.2457 13.4682 19.123 13.5023 20.0002 13.5182H20.1911C20.5729 13.5168 20.9538 13.5556 21.3275 13.6341C21.5484 13.6788 21.7489 13.7936 21.8992 13.9615C22.0495 14.1294 22.1416 14.3414 22.1616 14.5659C22.2065 14.8148 22.2255 15.0676 22.2184 15.3204C22.1957 16.3977 22.1434 17.4727 22.132 18.55C22.1216 18.9765 22.1605 19.4028 22.2479 19.8204C22.3729 20.3932 22.7661 20.5364 23.157 20.1227C23.6632 19.588 24.1275 19.0151 24.5457 18.4091C25.2852 17.3046 25.8952 16.1188 26.3639 14.875C26.6184 14.2364 26.8184 14.0954 27.5002 14.0954H31.3775C31.608 14.0914 31.8379 14.122 32.0593 14.1864C32.1377 14.2069 32.211 14.2435 32.2746 14.2937C32.3382 14.344 32.3907 14.4068 32.4289 14.4783C32.4671 14.5497 32.4901 14.6283 32.4965 14.7091C32.5029 14.7899 32.4926 14.8711 32.4661 14.9477C32.2752 15.7977 31.8161 16.5227 31.3298 17.2204C30.5411 18.3386 29.7093 19.4273 28.9025 20.5273C28.8005 20.6731 28.7071 20.8249 28.6229 20.9818C28.3184 21.5295 28.3411 21.8364 28.782 22.2932C29.4866 23.0159 30.2389 23.6954 30.9184 24.4409C31.4173 24.9828 31.8676 25.5677 32.2639 26.1886C32.7616 26.9591 32.4548 27.6954 31.5275 27.8273Z" fill="white"/>
</svg>
